<?xml version="1.0" encoding="utf-8"?>
<!-- Generator: Adobe Illustrator 20.1.0, SVG Export Plug-In . SVG Version: 6.00 Build 0)  -->
<svg version="1.1" id="Layer_1" xmlns="http://www.w3.org/2000/svg" xmlns:xlink="http://www.w3.org/1999/xlink" x="0px" y="0px"
	 viewBox="0 0 129.5 128.4" style="enable-background:new 0 0 129.5 128.4;" xml:space="preserve">
<path d="M110.3,126.8H18.6c-9.2,0-16.7-7.5-16.7-16.7V18.4c0-9.2,7.5-16.7,16.7-16.7h91.7c9.2,0,16.7,7.5,16.7,16.7v91.7
	C127,119.3,119.5,126.8,110.3,126.8z M18.7,6.8C12.3,6.8,7,12,7,18.5v91.7c0,6.4,5.2,11.7,11.7,11.7h91.7c6.4,0,11.7-5.2,11.7-11.7
	V18.4c0-6.4-5.2-11.7-11.7-11.7L18.7,6.8L18.7,6.8z"/>
<rect x="62.3" y="29.9" transform="matrix(0.7071 -0.7071 0.7071 0.7071 -26.4314 64.5889)" width="5" height="68.5"/>
<rect x="30.5" y="61.7" transform="matrix(0.7071 -0.7071 0.7071 0.7071 -26.4314 64.5889)" width="68.5" height="5"/>
</svg>
